<svg xmlns="http://www.w3.org/2000/svg" width="16.424" height="15.516" viewBox="0 0 16.424 15.516">
  <g id="cart-btn" transform="translate(0.261 -0.122)">
    <path id="Path_361" data-name="Path 361" d="M97.848,322.332a1.9,1.9,0,1,0,1.9,1.9A1.9,1.9,0,0,0,97.848,322.332Zm0,3.094a1.2,1.2,0,1,1,1.2-1.2A1.2,1.2,0,0,1,97.848,325.426Zm0,0" transform="translate(-92.613 -310.735)" fill="#fecc35" stroke="#fecc35" stroke-width="0.5"/>
    <path id="Path_362" data-name="Path 362" d="M15.567,3.642H3.263l-.251-1.4A2.094,2.094,0,0,0,1.315.544L.406.384a.349.349,0,1,0-.122.686l.913.16A1.394,1.394,0,0,1,2.326,2.36L3.559,9.318a1.739,1.739,0,0,0,1.714,1.439h7.317A1.738,1.738,0,0,0,14.26,9.52L15.9,4.092a.364.364,0,0,0-.052-.31.353.353,0,0,0-.279-.139ZM13.594,9.315a1.038,1.038,0,0,1-1,.742H5.277a1.04,1.04,0,0,1-1.028-.864L3.388,4.335H15.1Zm0,0" transform="translate(0)" fill="#fecc35" stroke="#fecc35" stroke-width="0.5"/>
    <path id="Path_363" data-name="Path 363" d="M307.848,322.332a1.9,1.9,0,1,0,1.9,1.9A1.9,1.9,0,0,0,307.848,322.332Zm0,3.094a1.2,1.2,0,1,1,1.2-1.2A1.2,1.2,0,0,1,307.848,325.426Zm0,0" transform="translate(-295.296 -310.735)" fill="#fecc35" stroke="#fecc35" stroke-width="0.5"/>
  </g>
</svg>
