<svg xmlns="http://www.w3.org/2000/svg" width="33.505" height="30.51" viewBox="0 0 33.505 30.51">
  <g id="cart" transform="translate(0.255 -0.119)">
    <path id="Path_361" data-name="Path 361" d="M99.861,322.332a3.908,3.908,0,1,0,3.908,3.908A3.908,3.908,0,0,0,99.861,322.332Zm0,6.38a2.472,2.472,0,1,1,2.471-2.471A2.472,2.472,0,0,1,99.861,328.712Zm0,0" transform="translate(-89.012 -299.77)" fill="#fecc35" stroke="#fecc35" stroke-width="0.5"/>
    <path id="Path_362" data-name="Path 362" d="M32.28,6.809H6.77l-.52-2.767A4.24,4.24,0,0,0,2.731.705L.845.389A.721.721,0,0,0,.007.945a.691.691,0,0,0,.585.8l1.893.316A2.821,2.821,0,0,1,4.826,4.283L7.384,17.995a3.559,3.559,0,0,0,3.555,2.836H26.11a3.586,3.586,0,0,0,3.461-2.438l3.4-10.7a.689.689,0,0,0-.108-.611.745.745,0,0,0-.578-.275ZM28.191,17.988a2.142,2.142,0,0,1-2.073,1.463H10.946a2.129,2.129,0,0,1-2.131-1.7L7.03,8.176H31.312Zm0,0" transform="translate(0 0)" fill="#fecc35" stroke="#fecc35" stroke-width="0.5"/>
    <path id="Path_363" data-name="Path 363" d="M309.861,322.332a3.908,3.908,0,1,0,3.908,3.908A3.908,3.908,0,0,0,309.861,322.332Zm0,6.38a2.472,2.472,0,1,1,2.471-2.471A2.472,2.472,0,0,1,309.861,328.712Zm0,0" transform="translate(-283.792 -299.77)" fill="#fecc35" stroke="#fecc35" stroke-width="0.5"/>
  </g>
</svg>
