<svg xmlns="http://www.w3.org/2000/svg" width="14" height="14" viewBox="0 0 14 14">
  <path id="category" d="M10.721,12.333A1.637,1.637,0,1,1,12.358,14,1.654,1.654,0,0,1,10.721,12.333Zm-5.384,0A1.638,1.638,0,1,1,6.974,14,1.654,1.654,0,0,1,5.336,12.333Zm-5.3,0a1.654,1.654,0,0,1,1.637-1.667,1.667,1.667,0,0,1,0,3.334A1.654,1.654,0,0,1,.037,12.333ZM10.683,7.008a1.638,1.638,0,1,1,1.638,1.667A1.654,1.654,0,0,1,10.683,7.008Zm-5.384,0A1.637,1.637,0,1,1,6.936,8.675,1.654,1.654,0,0,1,5.3,7.008Zm-5.3,0A1.654,1.654,0,0,1,1.637,5.341a1.667,1.667,0,0,1,0,3.334A1.654,1.654,0,0,1,0,7.008ZM10.726,1.667a1.637,1.637,0,1,1,3.274,0,1.637,1.637,0,1,1-3.274,0Zm-5.384,0a1.637,1.637,0,1,1,3.274,0,1.637,1.637,0,1,1-3.274,0Zm-5.3,0A1.654,1.654,0,0,1,1.68,0,1.654,1.654,0,0,1,3.317,1.667,1.654,1.654,0,0,1,1.68,3.334,1.654,1.654,0,0,1,.043,1.667Z" fill="#fb9426"/>
</svg>
