<svg xmlns="http://www.w3.org/2000/svg" width="22" height="16" viewBox="0 0 22 16">
  <path id="dropdown" d="M0,14a1.956,1.956,0,0,1,1.913-2,2,2,0,0,1,0,3.992A1.956,1.956,0,0,1,0,14Zm6.954,1.5a1.5,1.5,0,0,1,0-3H20.562a1.5,1.5,0,0,1,0,3ZM0,8A1.955,1.955,0,0,1,1.913,6,1.955,1.955,0,0,1,3.826,8a1.956,1.956,0,0,1-1.913,2A1.956,1.956,0,0,1,0,8ZM6.954,9.5a1.5,1.5,0,0,1,0-3H20.562a1.5,1.5,0,0,1,0,3ZM0,2A1.956,1.956,0,0,1,1.913,0,1.956,1.956,0,0,1,3.826,2a1.955,1.955,0,0,1-1.913,2A1.955,1.955,0,0,1,0,2ZM6.954,3.5A1.471,1.471,0,0,1,5.516,2,1.471,1.471,0,0,1,6.954.5H20.562A1.471,1.471,0,0,1,22,2a1.471,1.471,0,0,1-1.438,1.5Z" fill="#fb9426"/>
</svg>
