<svg xmlns="http://www.w3.org/2000/svg" width="8" height="8" viewBox="0 0 8 8">
  <path id="Path_26432" data-name="Path 26432" d="M457.628,589.387H452.5l.364-.1a.312.312,0,0,0,.136-.521l-1.591-1.6,3.708-3.708,1.379,1.379-2.839,2.831a.312.312,0,0,0,.441.443l3.375-3.366a1.6,1.6,0,0,0-2.264-2.264l-4.473,4.473a.313.313,0,0,0-.08.137l-.7,2.524a.312.312,0,0,0,.273.395h7.4a.313.313,0,0,0,.313-.313h0A.313.313,0,0,0,457.628,589.387Zm-1.978-6.464a.976.976,0,0,1,1.38,1.38l-.093.093-1.38-1.38Zm-4.533,4.837,1.064,1.067-1.478.42Z" transform="translate(-449.941 -582.013)" fill="#fff"/>
</svg>
