<svg xmlns="http://www.w3.org/2000/svg" width="18" height="18" viewBox="0 0 18 18">
  <path id="offer" d="M7.863,17.556,6.718,16.493a.564.564,0,0,0-.462-.144l-1.577.214a1.741,1.741,0,0,1-.234.016,1.61,1.61,0,0,1-1.605-1.3l-.275-1.506a.529.529,0,0,0-.286-.377L.87,12.681a1.533,1.533,0,0,1-.7-2.075l.7-1.373a.508.508,0,0,0,0-.466l-.7-1.373a1.533,1.533,0,0,1,.7-2.075L2.278,4.6a.53.53,0,0,0,.286-.377l.275-1.506a1.621,1.621,0,0,1,1.84-1.282l1.577.214a.565.565,0,0,0,.462-.144L7.863.444a1.678,1.678,0,0,1,2.274,0l1.145,1.063a.565.565,0,0,0,.462.144l1.577-.214a1.622,1.622,0,0,1,1.84,1.282l.275,1.506a.529.529,0,0,0,.286.377l1.407.716a1.532,1.532,0,0,1,.7,2.075l-.7,1.373a.508.508,0,0,0,0,.466l.7,1.373a1.533,1.533,0,0,1-.7,2.075l-1.407.716a.53.53,0,0,0-.286.377l-.275,1.506a1.621,1.621,0,0,1-1.84,1.282l-1.577-.214a.565.565,0,0,0-.462.144l-1.145,1.063a1.678,1.678,0,0,1-2.274,0ZM9.18,11.768a1.985,1.985,0,1,0,1.984-1.9A1.947,1.947,0,0,0,9.18,11.768Zm3.007-6.561-7.14,6.851a.5.5,0,0,0,0,.734.557.557,0,0,0,.765,0l7.14-6.851a.5.5,0,0,0,0-.734.557.557,0,0,0-.765,0ZM4.852,6.232a1.947,1.947,0,0,0,1.984,1.9,1.947,1.947,0,0,0,1.984-1.9,1.947,1.947,0,0,0-1.984-1.9A1.947,1.947,0,0,0,4.852,6.232Zm5.41,5.537a.9.9,0,1,1,.9.865A.885.885,0,0,1,10.262,11.768ZM5.934,6.231a.9.9,0,1,1,.9.865A.885.885,0,0,1,5.934,6.231Z" transform="translate(0 0)" fill="#fb9426"/>
</svg>
