<svg xmlns="http://www.w3.org/2000/svg" width="28.01" height="28.01" viewBox="0 0 28.01 28.01">
  <g id="right2" transform="matrix(0.799, -0.602, 0.602, 0.799, 0, 12.036)">
    <path id="Path_495" data-name="Path 495" d="M1.333,0A1.335,1.335,0,0,0,0,1.334,14.656,14.656,0,0,0,14.645,16h.022l-2.133,1.6a1.333,1.333,0,0,0,1.6,2.134h0l5.333-4a1.333,1.333,0,0,0,0-2.133l-5.333-4a1.333,1.333,0,0,0-1.6,2.134l2.133,1.6a12,12,0,0,1-12-12A1.335,1.335,0,0,0,1.333,0ZM14.667,15.334a13.989,13.989,0,0,1-14-13.978V1.334A.667.667,0,0,1,2,1.334,12.667,12.667,0,0,0,14.667,14h1a.333.333,0,0,0,.2-.6l-2.933-2.2a.667.667,0,1,1,.8-1.067l5.333,4a.667.667,0,0,1,0,1.067l-5.333,4a.667.667,0,0,1-.8-1.067l2.933-2.2a.333.333,0,0,0-.2-.6Z" transform="translate(0 0)" fill="#f79101"/>
  </g>
</svg>
