<svg xmlns="http://www.w3.org/2000/svg" width="28.009" height="28.009" viewBox="0 0 28.009 28.009">
  <g id="right" transform="matrix(0.799, 0.602, -0.602, 0.799, 12.036, -0.001)">
    <path id="Path_495" data-name="Path 495" d="M1.334,20A1.335,1.335,0,0,1,0,18.667,14.655,14.655,0,0,1,14.645,4h.022L12.534,2.4a1.333,1.333,0,1,1,1.6-2.134h0l5.333,4a1.333,1.333,0,0,1,0,2.133l-5.333,4a1.333,1.333,0,0,1-1.6-2.134l2.133-1.6a12,12,0,0,0-12,12A1.335,1.335,0,0,1,1.334,20ZM14.668,4.667a13.989,13.989,0,0,0-14,13.977v.023a.667.667,0,0,0,1.333,0A12.667,12.667,0,0,1,14.668,6h1a.333.333,0,0,1,.2.6L12.934,8.8a.667.667,0,0,0,.8,1.067l5.333-4a.667.667,0,0,0,0-1.067L13.734.8a.667.667,0,1,0-.8,1.067l2.933,2.2a.333.333,0,0,1-.2.6Z" transform="translate(0 0)" fill="#f79101"/>
  </g>
</svg>
