<svg xmlns="http://www.w3.org/2000/svg" width="15" height="15" viewBox="0 0 15 15">
  <g id="search" opacity="0.3">
    <g id="Group_103" data-name="Group 103" transform="translate(0 0)">
      <g id="Group_102" data-name="Group 102">
        <path id="Path_392" data-name="Path 392" d="M6.6,0a6.6,6.6,0,1,0,6.6,6.6A6.608,6.608,0,0,0,6.6,0Zm0,11.983A5.382,5.382,0,1,1,11.983,6.6,5.388,5.388,0,0,1,6.6,11.983Z" transform="translate(0 0)"/>
      </g>
    </g>
    <g id="Group_105" data-name="Group 105" transform="translate(10.259 10.259)">
      <g id="Group_104" data-name="Group 104">
        <path id="Path_393" data-name="Path 393" d="M355.607,354.74l-3.515-3.515a.613.613,0,0,0-.867.867l3.515,3.515a.613.613,0,0,0,.867-.867Z" transform="translate(-351.046 -351.046)"/>
      </g>
    </g>
  </g>
</svg>
