<svg xmlns="http://www.w3.org/2000/svg" xmlns:xlink="http://www.w3.org/1999/xlink" width="18" height="18" viewBox="0 0 18 18">
  <defs>
    <clipPath id="clip-path">
      <rect id="Rectangle_214" data-name="Rectangle 214" width="18" height="18" transform="translate(15833 7276)" fill="#fff" stroke="#707070" stroke-width="1"/>
    </clipPath>
  </defs>
  <g id="Mask_Group_30" data-name="Mask Group 30" transform="translate(-15833 -7276)" clip-path="url(#clip-path)">
    <path id="Union_19" data-name="Union 19" d="M1.256,12.8c-.068,0-.132.014-.174-.075C.728,11.98.369,11.236,0,10.469H18l-.112.28c-.183.38-.251.5-.425.889-.156.345-.347.675-.489,1.027a.2.2,0,0,1-.214.139Q9.008,12.8,1.256,12.8ZM1.121,9.74a7.793,7.793,0,0,1,4.222-6.8,7.424,7.424,0,0,1,4.069-.9,7.879,7.879,0,0,1,7.1,5.448A7.969,7.969,0,0,1,16.9,9.757c0,.149-.039.174-.177.174q-3.857-.006-7.714,0t-7.694,0h0C1.166,9.931,1.113,9.907,1.121,9.74Zm11.134-4.77c-.082.12-.064.167.05.247a5.711,5.711,0,0,1,2.032,2.551c.187.457.185.458.646.259a.235.235,0,0,1,.036-.014c.039-.01.05-.034.044-.054-.023-.065-.038-.114-.056-.162a6.386,6.386,0,0,0-2.132-2.926c-.169-.131-.259-.2-.332-.2S12.394,4.766,12.255,4.969Zm-2.22-3.493a7.761,7.761,0,0,0-1.79-.03c-.038,0-.076,0-.114.008-.26.029-.26.029-.259-.228A1.162,1.162,0,0,1,8.58.086,1.134,1.134,0,0,1,9.828.347a1.339,1.339,0,0,1,.326,1.062c0,.061-.028.075-.059.075A.488.488,0,0,1,10.035,1.476Z" transform="translate(15833 7278)" fill="#fb9426"/>
  </g>
</svg>
