<svg xmlns="http://www.w3.org/2000/svg" width="165" height="35.001" viewBox="0 0 165 35.001">
  <g id="logo" transform="translate(6497 3299)">
    <g id="Group_261" data-name="Group 261" transform="translate(-6497 -3299)">
      <circle id="Ellipse_26" data-name="Ellipse 26" cx="2.723" cy="2.723" r="2.723" transform="translate(115.393 18.029)" fill="#021343"/>
      <path id="Path_2064" data-name="Path 2064" d="M1061.912,450a8.912,8.912,0,1,0,8.912,8.912A8.912,8.912,0,0,0,1061.912,450Zm5.913,8.912a5.914,5.914,0,0,1-5.913,5.913h0a5.914,5.914,0,0,1-5.913-5.913h0a5.914,5.914,0,0,1,5.913-5.913h0a5.914,5.914,0,0,1,5.913,5.913Z" transform="translate(-946.471 -442.265)" fill="#fb9426" stroke="#fb9426" stroke-width="1"/>
      <path id="Path_2065" data-name="Path 2065" d="M908.912,450a8.912,8.912,0,1,0,8.912,8.912A8.912,8.912,0,0,0,908.912,450Zm5.913,8.912a5.913,5.913,0,0,1-5.913,5.913h0A5.914,5.914,0,0,1,903,458.912h0A5.914,5.914,0,0,1,908.912,453h0a5.913,5.913,0,0,1,5.913,5.913Z" transform="translate(-823.339 -442.265)" fill="#021343" stroke="#021343" stroke-width="1"/>
      <circle id="Ellipse_27" data-name="Ellipse 27" cx="2.723" cy="2.723" r="2.723" transform="translate(134.413 18.029)" fill="#021343"/>
      <path id="Path_2066" data-name="Path 2066" d="M1160.912,450a8.912,8.912,0,1,0,8.912,8.912A8.912,8.912,0,0,0,1160.912,450Zm5.914,8.912a5.914,5.914,0,0,1-5.914,5.913h0a5.913,5.913,0,0,1-5.913-5.913h0a5.913,5.913,0,0,1,5.913-5.913h0a5.914,5.914,0,0,1,5.914,5.913Z" transform="translate(-1026.449 -442.265)" fill="#fb9426" stroke="#fb9426" stroke-width="1"/>
      <path id="Path_2066-2" data-name="Path 2066" d="M1160.912,450a8.912,8.912,0,1,0,8.912,8.912A8.912,8.912,0,0,0,1160.912,450Zm5.914,8.912a5.914,5.914,0,0,1-5.914,5.913h0a5.913,5.913,0,0,1-5.913-5.913h0a5.913,5.913,0,0,1,5.913-5.913h0a5.914,5.914,0,0,1,5.914,5.913Z" transform="translate(-1006.844 -442.265)" fill="#fb9426" stroke="#fb9426" stroke-width="1"/>
      <path id="Path_2067" data-name="Path 2067" d="M1173.176,566.8c-.986.124-1.626,1.49-1.429,3.052a4.411,4.411,0,0,0,.156.729l3.344-1.576C1174.951,567.646,1174.076,566.684,1173.176,566.8Z" transform="translate(-1041.843 -537.311)" fill="#fb9426"/>
      <path id="Path_2068" data-name="Path 2068" d="M1089.078,559.662a13.305,13.305,0,0,0,22.893.794,15.288,15.288,0,0,1-22.893-.794Z" transform="translate(-975.564 -531.596)" fill="#021343"/>
      <path id="Path_2069" data-name="Path 2069" d="M516.107,434.084h-4.642V443.3H507.3V419.336h8.427a9.8,9.8,0,0,1,6.4,1.861,6.586,6.586,0,0,1,2.255,5.387,6.745,6.745,0,0,1-1.16,4.027,7.384,7.384,0,0,1-3.234,2.5l5.382,9.979v.214h-4.46Zm-4.642-3.358h4.279a4.76,4.76,0,0,0,3.292-1.062,3.7,3.7,0,0,0,1.185-2.905,3.941,3.941,0,0,0-1.094-2.979,4.652,4.652,0,0,0-3.267-1.086h-4.395Z" transform="translate(-507.301 -417.673)" fill="#021343"/>
      <path id="Path_2070" data-name="Path 2070" d="M616.642,467.225a8.274,8.274,0,0,1-6.164-2.395,8.687,8.687,0,0,1-2.362-6.378v-.494a10.687,10.687,0,0,1,1.029-4.765,7.827,7.827,0,0,1,2.889-3.267,7.639,7.639,0,0,1,4.148-1.169,6.99,6.99,0,0,1,5.621,2.321,9.814,9.814,0,0,1,1.983,6.567v1.613H612.148a5.347,5.347,0,0,0,1.473,3.489,4.421,4.421,0,0,0,3.251,1.284,5.417,5.417,0,0,0,4.477-2.222l2.156,2.057a7.2,7.2,0,0,1-2.856,2.477A8.943,8.943,0,0,1,616.642,467.225Zm-.477-15.258a3.369,3.369,0,0,0-2.658,1.152,5.972,5.972,0,0,0-1.292,3.21h7.621v-.3a4.865,4.865,0,0,0-1.07-3.037A3.343,3.343,0,0,0,616.165,451.968Z" transform="translate(-588.151 -441.269)" fill="#021343"/>
      <path id="Path_2071" data-name="Path 2071" d="M709.589,462.057a1.814,1.814,0,0,0-.881-1.629,9.379,9.379,0,0,0-2.922-.988,15,15,0,0,1-3.407-1.086q-3-1.448-3-4.2a4.74,4.74,0,0,1,1.942-3.852,7.678,7.678,0,0,1,4.938-1.547,7.99,7.99,0,0,1,5.16,1.58,5.014,5.014,0,0,1,1.967,4.1h-4a2.465,2.465,0,0,0-.856-1.918,3.281,3.281,0,0,0-2.272-.765,3.544,3.544,0,0,0-2.148.609,1.92,1.92,0,0,0-.831,1.629,1.62,1.62,0,0,0,.774,1.432,10.628,10.628,0,0,0,3.127,1.029,14.8,14.8,0,0,1,3.7,1.235,5.234,5.234,0,0,1,1.992,1.72,4.386,4.386,0,0,1,.65,2.436,4.64,4.64,0,0,1-1.991,3.893,8.491,8.491,0,0,1-5.218,1.49,9.212,9.212,0,0,1-3.9-.79,6.421,6.421,0,0,1-2.666-2.173,5.142,5.142,0,0,1-.955-2.979h3.884a2.82,2.82,0,0,0,1.07,2.181,4.157,4.157,0,0,0,2.617.765,4.044,4.044,0,0,0,2.4-.6A1.859,1.859,0,0,0,709.589,462.057Z" transform="translate(-661.399 -441.269)" fill="#021343"/>
      <path id="Path_2072" data-name="Path 2072" d="M788,428.562v4.329h3.144v2.963H788v9.941a2.188,2.188,0,0,0,.4,1.473,1.869,1.869,0,0,0,1.44.453,6.173,6.173,0,0,0,1.4-.165v3.094a9.864,9.864,0,0,1-2.633.378q-4.609,0-4.609-5.086V435.854h-2.93v-2.963H784v-4.329Z" transform="translate(-727.591 -425.072)" fill="#021343"/>
      <path id="Path_2073" data-name="Path 2073" d="M856.645,452.741a9.922,9.922,0,0,0-1.629-.132,3.669,3.669,0,0,0-3.7,2.107V466.9h-4V449.087h3.819l.1,1.992a4.506,4.506,0,0,1,4.016-2.321,3.746,3.746,0,0,1,1.416.231Z" transform="translate(-780.885 -441.269)" fill="#021343"/>
      <path id="Path_2074" data-name="Path 2074" d="M997.221,436.569V421.722h-2.716v-2.963h2.716V417.13a6.117,6.117,0,0,1,1.646-4.576,6.3,6.3,0,0,1,4.609-1.613,9.241,9.241,0,0,1,2.238.3l-.1,3.127a7.877,7.877,0,0,0-1.531-.132q-2.864,0-2.864,2.946v1.58h3.621v2.963h-3.621v14.846Z" transform="translate(-899.336 -410.941)" fill="#fb9426"/>
      <rect id="Rectangle_4808" data-name="Rectangle 4808" width="4" height="25" transform="translate(161 1)" fill="#fb9426"/>
    </g>
  </g>
</svg>
